HIERARCHY
ROOT joint_Root
{
  OFFSET 0 0 0
  CHANNELS 6 Xposition Yposition Zposition Zrotation Xrotation Yrotation
  JOINT Hips
  {
    OFFSET 0 93.9241 -3
    CHANNELS 6 Xposition Yposition Zposition Zrotation Xrotation Yrotation
    JOINT Spine
    {
      OFFSET 15.7357 0 0
      CHANNELS 6 Xposition Yposition Zposition Zrotation Xrotation Yrotation
      JOINT Chest
      {
        OFFSET 8.98455 -0.406207 0
        CHANNELS 6 Xposition Yposition Zposition Zrotation Xrotation Yrotation
        JOINT Neck
        {
          OFFSET 16.3773 0 0
          CHANNELS 6 Xposition Yposition Zposition Zrotation Xrotation Yrotation
          JOINT Head
          {
            OFFSET 6.45672 0 0
            CHANNELS 6 Xposition Yposition Zposition Zrotation Xrotation Yrotation
            End Site
            {
              OFFSET 0 0 0
            }
          }
        }
        JOINT Shoulder_L
        {
          OFFSET 12.9942 -0.242716 4.98039
          CHANNELS 6 Xposition Yposition Zposition Zrotation Xrotation Yrotation
          JOINT UpperArm_L
          {
            OFFSET 5.34809 0 0
            CHANNELS 6 Xposition Yposition Zposition Zrotation Xrotation Yrotation
            JOINT LowerArm_L
            {
              OFFSET 24.3286 1.87007e-05 0
              CHANNELS 6 Xposition Yposition Zposition Zrotation Xrotation Yrotation
              JOINT Hand_L
              {
                OFFSET 22.2916 0 0
                CHANNELS 6 Xposition Yposition Zposition Zrotation Xrotation Yrotation
                End Site
                {
                  OFFSET 0 0 0
                }
              }
            }
          }
        }
        JOINT Shoulder_R
        {
          OFFSET 12.9945 -0.242716 -4.98039
          CHANNELS 6 Xposition Yposition Zposition Zrotation Xrotation Yrotation
          JOINT UpperArm_R
          {
            OFFSET -5.34813 0 0
            CHANNELS 6 Xposition Yposition Zposition Zrotation Xrotation Yrotation
            JOINT LowerArm_R
            {
              OFFSET -24.3289 0.000322201 0
              CHANNELS 6 Xposition Yposition Zposition Zrotation Xrotation Yrotation
              JOINT Hand_R
              {
                OFFSET -22.2915 -0.000108084 0
                CHANNELS 6 Xposition Yposition Zposition Zrotation Xrotation Yrotation
                End Site
                {
                  OFFSET 0 0 0
                }
              }
            }
          }
        }
      }
    }
    JOINT UpperLeg_L
    {
      OFFSET -2.19248 -6.46944 0
      CHANNELS 6 Xposition Yposition Zposition Zrotation Xrotation Yrotation
      JOINT LowerLeg_L
      {
        OFFSET 39.0811 0 -1.23785e-05
        CHANNELS 6 Xposition Yposition Zposition Zrotation Xrotation Yrotation
        JOINT Foot_L
        {
          OFFSET 40.9854 0 -1.26872e-05
          CHANNELS 6 Xposition Yposition Zposition Zrotation Xrotation Yrotation
          JOINT Toes_L
          {
            OFFSET 11.7543 0 0
            CHANNELS 6 Xposition Yposition Zposition Zrotation Xrotation Yrotation
            End Site
            {
              OFFSET 0 0 0
            }
          }
        }
      }
    }
    JOINT UpperLeg_R
    {
      OFFSET -2.19251 6.46944 0
      CHANNELS 6 Xposition Yposition Zposition Zrotation Xrotation Yrotation
      JOINT LowerLeg_R
      {
        OFFSET -39.0811 -0.00228153 -0.0401928
        CHANNELS 6 Xposition Yposition Zposition Zrotation Xrotation Yrotation
        JOINT Foot_R
        {
          OFFSET -40.9854 0 0
          CHANNELS 6 Xposition Yposition Zposition Zrotation Xrotation Yrotation
          JOINT Toes_R
          {
            OFFSET -11.7543 0 0
            CHANNELS 6 Xposition Yposition Zposition Zrotation Xrotation Yrotation
            End Site
            {
              OFFSET 0 0 0
            }
          }
        }
      }
    }
  }
}
MOTION
Frames:	8
Frame Time:	0.0333333
0 0 0 0 0 -0 186.503 91.7335 7.12564 90.0879 -70.5008 3.34644 15.7357 5.1072e-06 -5.51765e-07 157.448 83.4614 -158.924 8.98455 -0.406207 -4.3199e-07 -2.61604 12.2066 -2.67957 16.3773 -1.3905e-06 -6.99897e-07 -8.90901 12.356 5.72216 6.45672 -1.25837e-06 -1.02172e-07 -1.56531 13.4094 6.58622 12.9942 -0.242716 4.98039 -89.3733 -2.02998 -87.8379 5.34809 -7.22636e-06 -6.2814e-07 -66.8011 53.4429 34.8799 24.3286 1.87007e-05 4.90208e-06 35.216 -11.5722 -105.865 22.2916 -9.88446e-07 4.63217e-06 20.4638 5.67275 -17.8384 12.9945 -0.242716 -4.98039 90.1734 -4.00994 -102.522 -5.34813 -1.25947e-06 -3.79883e-06 -33.7492 -24.0022 -23.9168 -24.3289 0.000322201 -8.65921e-06 -33.4213 -62.279 -36.6971 -22.2915 -0.000108084 -4.47941e-06 -2.00746 5.24105 1.66862 -2.19248 -6.46944 -1.22534e-07 172.853 -1.29468 -9.0189 39.0811 -6.73843e-06 -1.23785e-05 0.180306 -0.36848 23.2719 40.9854 -6.48686e-06 -1.26872e-05 7.5014 -2.87884 -61.4669 11.7543 -2.30145e-07 3.05095e-06 0.132107 -0.150257 -18.0353 -2.19251 6.46944 -1.45247e-06 -179.832 18.3087 161.297 -39.0811 -0.00228153 -0.0401928 -0.187487 0.0986249 63.2267 -40.9854 7.72618e-06 5.99936e-06 12.9232 -19.8105 -39.9908 -11.7543 -5.6619e-06 -5.58687e-06 0.607813 -0.687707 -21.6826 
0 0 0 0 0 -0 183.689 91.9753 7.24571 88.0369 -70.4639 2.23248 15.7357 5.1072e-06 -5.51765e-07 155.417 83.4692 -156.52 8.98455 -0.406207 -4.3199e-07 -2.23379 11.9705 -1.97927 16.3773 -1.3905e-06 -6.99897e-07 -8.82361 12.1836 5.86599 6.45672 -1.25837e-06 -1.02172e-07 -1.08831 13.3961 6.50968 12.9942 -0.242716 4.98039 -89.3885 -2.00802 -88.0579 5.34809 -7.22636e-06 -6.2814e-07 -66.9556 53.4554 35.1391 24.3286 1.87007e-05 4.90208e-06 34.9352 -11.4953 -105.924 22.2916 -9.88446e-07 4.63217e-06 20.3628 5.67272 -17.8301 12.9945 -0.242716 -4.98039 90.1826 -3.88966 -102.309 -5.34813 -1.25947e-06 -3.79883e-06 -33.3872 -24.2067 -23.7079 -24.3289 0.000322201 -8.65921e-06 -33.1091 -62.1243 -36.4121 -22.2915 -0.000108084 -4.47941e-06 -2.35212 5.23975 1.70149 -2.19248 -6.46944 -1.22534e-07 174.191 -1.0111 -5.86864 39.0811 -6.73843e-06 -1.23785e-05 0.168165 -0.353454 22.5936 40.9854 -6.48686e-06 -1.26872e-05 6.6952 -3.28288 -63.0708 11.7543 -2.30145e-07 3.05095e-06 0.0797372 -0.0897699 -17.4526 -2.19251 6.46944 -1.45247e-06 -178.934 17.4578 158.97 -39.0811 -0.00228153 -0.0401928 -0.262708 0.160801 59.0669 -40.9854 7.72618e-06 5.99936e-06 15.1741 -23.7981 -43.8719 -11.7543 -5.6619e-06 -5.58687e-06 0.604359 -0.683403 -21.6519 
0 0 0 0 0 -0 180.993 92.1029 7.35103 86.8605 -70.6086 1.51142 15.7357 5.1072e-06 -5.51765e-07 154.512 83.4459 -155.428 8.98455 -0.406207 -4.3199e-07 -2.04468 11.9076 -1.62302 16.3773 -1.3905e-06 -6.99897e-07 -8.84058 11.9972 5.95876 6.45672 -1.25837e-06 -1.02172e-07 -0.662983 13.4009 6.5575 12.9942 -0.242716 4.98039 -89.3801 -2.06229 -88.2644 5.34809 -7.22636e-06 -6.2814e-07 -67.0686 53.5509 35.3344 24.3286 1.87007e-05 4.90208e-06 34.6635 -11.4207 -105.979 22.2916 -9.88446e-07 4.63217e-06 20.517 5.67291 -17.8617 12.9945 -0.242716 -4.98039 90.1937 -3.7461 -102.039 -5.34813 -1.25947e-06 -3.79883e-06 -33.0283 -24.3277 -23.4429 -24.3289 0.000322201 -8.65921e-06 -33.1005 -62.0754 -36.4178 -22.2915 -0.000108084 -4.47941e-06 -2.43537 5.23596 1.80095 -2.19248 -6.46944 -1.22533e-07 175.376 -2.36911 -3.14964 39.0811 -6.73843e-06 -1.23785e-05 0.149414 -0.325911 21.7366 40.9854 -6.48686e-06 -1.26872e-05 6.1867 -2.29416 -64.6751 11.7543 -2.30145e-07 3.05095e-06 0.0262824 -0.0292915 -16.8645 -2.19251 6.46944 -1.45247e-06 -178.525 16.1195 157.632 -39.0811 -0.00228153 -0.0401928 -0.211432 0.168146 51.8472 -40.9854 7.72618e-06 5.99936e-06 13.4535 -22.6096 -47.7662 -11.7543 -5.6619e-06 -5.58687e-06 0.598949 -0.676738 -21.604 
0 0 0 0 0 -0 178.404 92.0624 7.47581 86.9619 -70.8228 1.73531 15.7357 5.1072e-06 -5.51765e-07 153.854 83.4242 -154.791 8.98455 -0.406207 -4.3199e-07 -1.88581 11.8817 -1.68058 16.3773 -1.3905e-06 -6.99897e-07 -9.06778 11.8397 6.09131 6.45672 -1.25837e-06 -1.02172e-07 -0.233525 13.4411 6.56249 12.9942 -0.242716 4.98039 -89.4099 -1.97132 -88.33 5.34809 -7.22636e-06 -6.2814e-07 -66.8213 53.633 35.3042 24.3286 1.87007e-05 4.90208e-06 34.7245 -11.4577 -105.993 22.2916 -9.88446e-07 4.63217e-06 20.5134 5.67283 -17.8524 12.9945 -0.242716 -4.98039 90.1986 -3.58047 -101.823 -5.34813 -1.25947e-06 -3.79883e-06 -32.9407 -24.893 -23.2594 -24.3289 0.000322201 -8.65921e-06 -33.4082 -62.2621 -36.6955 -22.2915 -0.000108084 -4.47941e-06 -2.60748 5.23597 1.80104 -2.19248 -6.46944 -1.22534e-07 176.032 -3.04903 -0.86239 39.0811 -6.73843e-06 -1.23785e-05 0.128663 -0.287067 21.0691 40.9854 -6.48686e-06 -1.26872e-05 5.59838 -1.97553 -66.2037 11.7543 -2.30145e-07 3.05095e-06 -0.0286507 0.0228363 -16.5762 -2.19251 6.46944 -1.45247e-06 -178.669 14.9564 157.576 -39.0811 -0.00228153 -0.0401928 -0.124008 0.140038 41.6108 -40.9854 7.72618e-06 5.99936e-06 10.9859 -17.7288 -49.6645 -11.7543 -5.6619e-06 -5.58687e-06 0.586731 -0.661677 -21.4963 
0 0 0 0 0 -0 175.806 91.8591 7.61189 88.5412 -70.8731 3.20808 15.7357 5.1072e-06 -5.51765e-07 153.183 83.4598 -154.324 8.98455 -0.406207 -4.3199e-07 -1.75748 11.7655 -2.1055 16.3773 -1.3905e-06 -6.99897e-07 -9.12821 11.7867 6.15207 6.45672 -1.25837e-06 -1.02172e-07 -0.0891017 13.4895 6.50604 12.9942 -0.242716 4.98039 -89.4496 -1.83525 -88.3012 5.34809 -7.22636e-06 -6.2814e-07 -66.57 53.6292 35.1592 24.3286 1.87007e-05 4.90208e-06 34.9152 -11.4276 -105.847 22.2916 -9.88446e-07 4.63217e-06 20.9364 5.67462 -18.1869 12.9945 -0.242716 -4.98039 90.1965 -3.37047 -101.661 -5.34813 -1.25947e-06 -3.79883e-06 -32.7197 -25.398 -23.0956 -24.3289 0.000322201 -8.65921e-06 -32.4349 -61.9769 -35.7465 -22.2915 -0.000108084 -4.47941e-06 -2.24897 5.24038 1.68518 -2.19248 -6.46944 -1.22534e-07 176.005 -2.58722 1.24339 39.0811 -6.73843e-06 -1.23785e-05 0.104115 -0.232851 20.5223 40.9854 -6.48686e-06 -1.26872e-05 4.89142 -2.4765 -67.7192 11.7543 -2.30144e-07 3.05095e-06 -0.0345674 0.0275592 -16.576 -2.19251 6.46944 -1.45247e-06 -179.522 13.8399 159.172 -39.0811 -0.00228153 -0.0401928 -0.052824 0.0934397 28.3397 -40.9854 7.72618e-06 5.99936e-06 7.63708 -12.3625 -49.231 -11.7543 -5.6619e-06 -5.58687e-06 0.572935 -0.644742 -21.3749 
0 0 0 0 0 -0 173.084 91.4871 7.77384 91.6001 -70.4437 5.96952 15.7357 5.1072e-06 -5.51764e-07 152.215 83.5974 -153.756 8.98455 -0.406207 -4.3199e-07 -1.64934 11.4528 -2.92379 16.3773 -1.3905e-06 -6.99897e-07 -8.99303 11.671 6.20404 6.45672 -1.25837e-06 -1.02172e-07 -0.229578 13.5494 6.54057 12.9942 -0.242716 4.98039 -89.4379 -1.89811 -88.4999 5.34809 -7.22636e-06 -6.2814e-07 -67.0105 53.473 35.3699 24.3286 1.87007e-05 4.90208e-06 35.428 -11.4712 -105.618 22.2916 -9.88446e-07 4.63217e-06 21.5263 5.67628 -18.5384 12.9945 -0.242716 -4.98039 90.2178 -3.584 -101.519 -5.34813 -1.25947e-06 -3.79883e-06 -32.7153 -25.4507 -22.6796 -24.3289 0.000322201 -8.65921e-06 -31.8975 -62.0261 -35.1713 -22.2915 -0.000108084 -4.47941e-06 -1.84294 5.24332 1.60879 -2.19248 -6.46944 -1.22533e-07 175.568 -2.3998 3.26397 39.0811 -6.73843e-06 -1.23785e-05 0.0845897 -0.187443 20.0824 40.9854 -6.48686e-06 -1.26872e-05 4.25148 -2.45895 -69.3937 11.7543 -2.30144e-07 3.05095e-06 -0.0742046 0.0593075 -16.5743 -2.19251 6.46944 -1.45247e-06 178.717 12.5757 162.679 -39.0811 -0.00228153 -0.0401928 -0.0120849 0.0411122 11.9948 -40.9854 7.72618e-06 5.99936e-06 3.92113 -8.43571 -44.5036 -11.7543 -5.6619e-06 -5.58687e-06 0.567983 -0.638689 -21.3314 
0 0 0 0 0 -0 170.067 90.8751 7.84901 94.4706 -69.7298 8.58705 15.7357 5.1072e-06 -5.51765e-07 150.905 83.7784 -152.907 8.98455 -0.406207 -4.3199e-07 -1.52562 11.0329 -3.86571 16.3773 -1.3905e-06 -6.99897e-07 -8.90512 11.482 6.33286 6.45672 -1.25837e-06 -1.02172e-07 -0.557199 13.5612 6.73891 12.9942 -0.242716 4.98039 -89.3945 -2.0705 -88.694 5.34809 -7.22636e-06 -6.2814e-07 -67.6097 53.553 35.797 24.3286 1.87007e-05 4.90208e-06 35.6005 -11.6623 -105.767 22.2916 -9.88446e-07 4.63217e-06 21.4167 5.67692 -18.6759 12.9945 -0.242716 -4.98039 90.2395 -3.68161 -101.275 -5.34813 -1.25947e-06 -3.79883e-06 -33.0532 -25.9816 -22.3391 -24.3289 0.000322201 -8.65921e-06 -31.613 -61.9285 -34.8975 -22.2915 -0.000108084 -4.47941e-06 -2.16859 5.22785 2.01183 -2.19248 -6.46944 -1.22534e-07 175.265 -2.10538 5.12553 39.0811 -6.73843e-06 -1.23785e-05 0.0698294 -0.142106 20.4811 40.9854 -6.48686e-06 -1.26872e-05 3.47951 -2.35186 -71.6899 11.7543 -2.30145e-07 3.05095e-06 -0.0798868 0.0640541 -16.5739 -2.19251 6.46944 -1.45247e-06 177.046 11.8773 162.26 -39.0811 -0.00228153 -0.0401928 0.00297064 -0.00476238 4.88335 -40.9854 7.72618e-06 5.99936e-06 1.51871 -7.44489 -42.8853 -11.7543 -5.6619e-06 -5.58687e-06 0.513854 -0.57303 -20.8579 
0 0 0 0 0 -0 166.704 90.2392 7.73698 95.5366 -69.0151 9.63721 15.7357 5.1072e-06 -5.51765e-07 149.69 83.9365 -151.935 8.98455 -0.406207 -4.3199e-07 -1.43802 10.6473 -4.36457 16.3773 -1.3905e-06 -6.99897e-07 -8.81511 11.3551 6.4139 6.45672 -1.25837e-06 -1.02172e-07 -0.918718 13.5369 6.88094 12.9942 -0.242716 4.98039 -89.4309 -1.95927 -88.7983 5.34809 -7.22636e-06 -6.2814e-07 -67.8551 53.8063 36.1947 24.3286 1.87007e-05 4.90208e-06 35.6568 -11.6862 -105.766 22.2916 -9.88446e-07 4.63217e-06 21.7902 5.67797 -18.9414 12.9945 -0.242716 -4.98039 90.2288 -3.32629 -101.062 -5.34813 -1.25947e-06 -3.79883e-06 -32.3509 -25.8843 -21.693 -24.3289 0.000322201 -8.65921e-06 -31.7784 -61.9023 -35.0769 -22.2915 -0.000108084 -4.47941e-06 -2.38274 5.21926 2.23071 -2.19248 -6.46944 -1.22534e-07 175.935 -2.23161 7.65286 39.0811 -6.73843e-06 -1.23785e-05 0.0521691 -0.0969404 20.2515 40.9854 -6.48686e-06 -1.26872e-05 2.53735 -1.74336 -73.8993 11.7543 -2.30145e-07 3.05095e-06 -0.03844 0.0309026 -16.5758 -2.19251 6.46944 -1.45247e-06 176.972 12.729 162.409 -39.0811 -0.00228153 -0.0401928 0.00308358 -0.00290934 0.00725864 -40.9854 7.72618e-06 5.99936e-06 2.78376 -7.35579 -47.048 -11.7543 -5.6619e-06 -5.58687e-06 0.545618 -0.611424 -21.1353 
